<?xml version="1.0" encoding="UTF-8" standalone="no"?>
<!DOCTYPE svg PUBLIC "-//W3C//DTD SVG 1.1//EN"
 "http://www.w3.org/Graphics/SVG/1.1/DTD/svg11.dtd">
<!-- Generated by graphviz version 2.40.1 (20161225.0304)
 -->
<!-- Title: G Pages: 1 -->
<svg width="118pt" height="250pt"
 viewBox="0.00 0.00 118.00 250.00" xmlns="http://www.w3.org/2000/svg" xmlns:xlink="http://www.w3.org/1999/xlink">
<g id="graph0" class="graph" transform="scale(1 1) rotate(0) translate(4 246)">
<title>G</title>
<polygon fill="#ffffff" stroke="transparent" points="-4,4 -4,-246 114,-246 114,4 -4,4"/>
<!-- A0 -->
<g id="node1" class="node">
<title>A0</title>
<polygon fill="none" stroke="#000000" points="1,-210 1,-242 110,-242 110,-210 1,-210"/>
<text text-anchor="start" x="33.4175" y="-223" font-family="Helvetica,sans-Serif" font-size="10.00" fill="#000000">+MyClass</text>
<polygon fill="none" stroke="#000000" points="1,-178 1,-210 110,-210 110,-178 1,-178"/>
<text text-anchor="start" x="20.502" y="-191" font-family="Helvetica,sans-Serif" font-size="10.00" fill="#000000">&#45;myString:string</text>
<polygon fill="none" stroke="#000000" points="1,-134 1,-178 110,-178 110,-134 1,-134"/>
<text text-anchor="start" x="14.248" y="-159" font-family="Helvetica,sans-Serif" font-size="10.00" fill="#000000">+MyString:string:w</text>
<text text-anchor="start" x="10.6345" y="-147" font-family="Helvetica,sans-Serif" font-size="10.00" fill="#000000">+GetString():string:v</text>
</g>
<!-- A1 -->
<g id="node2" class="node">
<title>A1</title>
<polygon fill="none" stroke="#000000" points="0,-52 0,-84 110,-84 110,-52 0,-52"/>
<text text-anchor="start" x="15.6955" y="-65" font-family="Helvetica,sans-Serif" font-size="10.00" fill="#000000">+MyDerivedClass</text>
<polygon fill="none" stroke="#000000" points="0,-32 0,-52 110,-52 110,-32 0,-32"/>
<polygon fill="none" stroke="#000000" points="0,0 0,-32 110,-32 110,0 0,0"/>
<text text-anchor="start" x="9.855" y="-13" font-family="Helvetica,sans-Serif" font-size="10.00" fill="#000000">+GetString():string:o</text>
</g>
<!-- A0&#45;&gt;A1 -->
<g id="edge1" class="edge">
<title>A0&#45;&gt;A1</title>
<path fill="none" stroke="#000000" d="M55,-123.5195C55,-110.1536 55,-96.4015 55,-84.0884"/>
<polygon fill="#000000" stroke="#000000" points="55,-133.635 50.5001,-123.6349 55,-128.635 55.0001,-123.635 55.0001,-123.635 55.0001,-123.635 55,-128.635 59.5001,-123.635 55,-133.635 55,-133.635"/>
</g>
</g>
</svg>
