<?xml version="1.0" encoding="UTF-8" standalone="no"?>
<!DOCTYPE svg PUBLIC "-//W3C//DTD SVG 1.1//EN"
 "http://www.w3.org/Graphics/SVG/1.1/DTD/svg11.dtd">
<!-- Generated by graphviz version 2.40.1 (20161225.0304)
 -->
<!-- Title: G Pages: 1 -->
<svg width="170pt" height="254pt"
 viewBox="0.00 0.00 170.00 254.00" xmlns="http://www.w3.org/2000/svg" xmlns:xlink="http://www.w3.org/1999/xlink">
<g id="graph0" class="graph" transform="scale(1 1) rotate(0) translate(4 250)">
<title>G</title>
<polygon fill="#ffffff" stroke="transparent" points="-4,4 -4,-250 166,-250 166,4 -4,4"/>
<!-- A0 -->
<g id="node1" class="node">
<title>A0</title>
<polygon fill="none" stroke="#000000" points="8,-214 8,-246 79,-246 79,-214 8,-214"/>
<text text-anchor="start" x="19.3345" y="-227" font-family="Helvetica,sans-Serif" font-size="10.00" fill="#000000">A:HotDrink</text>
<polygon fill="none" stroke="#000000" points="8,-170 8,-214 79,-214 79,-170 8,-170"/>
<text text-anchor="start" x="34.6165" y="-195" font-family="Helvetica,sans-Serif" font-size="10.00" fill="#000000">Milk</text>
<text text-anchor="start" x="30.1625" y="-183" font-family="Helvetica,sans-Serif" font-size="10.00" fill="#000000">Sugar</text>
<polygon fill="none" stroke="#000000" points="8,-114 8,-170 79,-170 79,-114 8,-114"/>
<text text-anchor="start" x="28.508" y="-151" font-family="Helvetica,sans-Serif" font-size="10.00" fill="#000000">Drink()</text>
<text text-anchor="start" x="22.394" y="-139" font-family="Helvetica,sans-Serif" font-size="10.00" fill="#000000">AddMilk()</text>
<text text-anchor="start" x="17.94" y="-127" font-family="Helvetica,sans-Serif" font-size="10.00" fill="#000000">AddSugar()</text>
</g>
<!-- A2 -->
<g id="node3" class="node">
<title>A2</title>
<polygon fill="none" stroke="#000000" points="0,-32 0,-64 78,-64 78,-32 0,-32"/>
<text text-anchor="start" x="9.8255" y="-45" font-family="Helvetica,sans-Serif" font-size="10.00" fill="#000000">CupOfCoffee</text>
<polygon fill="none" stroke="#000000" points="0,0 0,-32 78,-32 78,0 0,0"/>
<text text-anchor="start" x="16.2135" y="-13" font-family="Helvetica,sans-Serif" font-size="10.00" fill="#000000">BeanType</text>
</g>
<!-- A0&#45;&gt;A2 -->
<g id="edge2" class="edge">
<title>A0&#45;&gt;A2</title>
<path fill="none" stroke="#000000" stroke-dasharray="5,2" d="M40.9366,-103.6533C40.5599,-89.7177 40.1863,-75.8933 39.8692,-64.1594"/>
<polygon fill="#000000" stroke="#000000" points="41.2106,-113.7918 36.442,-103.9171 41.0755,-108.7937 40.9403,-103.7955 40.9403,-103.7955 40.9403,-103.7955 41.0755,-108.7937 45.4387,-103.6739 41.2106,-113.7918 41.2106,-113.7918"/>
</g>
<!-- A3 -->
<g id="node4" class="node">
<title>A3</title>
<polygon fill="none" stroke="#000000" points="96,-32 96,-64 162,-64 162,-32 96,-32"/>
<text text-anchor="start" x="105.939" y="-45" font-family="Helvetica,sans-Serif" font-size="10.00" fill="#000000">CupOfTea</text>
<polygon fill="none" stroke="#000000" points="96,0 96,-32 162,-32 162,0 96,0"/>
<text text-anchor="start" x="108.1585" y="-13" font-family="Helvetica,sans-Serif" font-size="10.00" fill="#000000">LeafType</text>
</g>
<!-- A0&#45;&gt;A3 -->
<g id="edge4" class="edge">
<title>A0&#45;&gt;A3</title>
<path fill="none" stroke="#000000" stroke-dasharray="5,2" d="M83.822,-109.7482C93.0415,-93.8821 102.3948,-77.7856 110.1809,-64.3863"/>
<polygon fill="#000000" stroke="#000000" points="78.7246,-118.5204 79.858,-107.6133 81.2367,-114.1973 83.7488,-109.8742 83.7488,-109.8742 83.7488,-109.8742 81.2367,-114.1973 87.6397,-112.1351 78.7246,-118.5204 78.7246,-118.5204"/>
</g>
<!-- A1 -->
<g id="node2" class="node">
<title>A1</title>
<polygon fill="none" stroke="#000000" points="100,-208 100,-240 153,-240 153,-208 100,-208"/>
<text text-anchor="start" x="113.163" y="-221" font-family="Helvetica,sans-Serif" font-size="10.00" fill="#000000">I:ICup</text>
<polygon fill="none" stroke="#000000" points="100,-164 100,-208 153,-208 153,-164 100,-164"/>
<text text-anchor="start" x="114.5575" y="-189" font-family="Helvetica,sans-Serif" font-size="10.00" fill="#000000">Color</text>
<text text-anchor="start" x="109.553" y="-177" font-family="Helvetica,sans-Serif" font-size="10.00" fill="#000000">Volume</text>
<polygon fill="none" stroke="#000000" points="100,-120 100,-164 153,-164 153,-120 100,-120"/>
<text text-anchor="start" x="112.064" y="-145" font-family="Helvetica,sans-Serif" font-size="10.00" fill="#000000">Refill()</text>
<text text-anchor="start" x="110.3925" y="-133" font-family="Helvetica,sans-Serif" font-size="10.00" fill="#000000">Wash()</text>
</g>
<!-- A1&#45;&gt;A2 -->
<g id="edge1" class="edge">
<title>A1&#45;&gt;A2</title>
<path fill="none" stroke="#000000" d="M93.7541,-123.8502C91.8126,-120.5142 89.8836,-117.2111 88,-114 78.3501,-97.5497 67.482,-79.3315 58.4374,-64.2535"/>
<polygon fill="none" stroke="#000000" points="90.8536,-125.8253 98.9004,-132.7174 96.9079,-122.3116 90.8536,-125.8253"/>
</g>
<!-- A1&#45;&gt;A3 -->
<g id="edge3" class="edge">
<title>A1&#45;&gt;A3</title>
<path fill="none" stroke="#000000" d="M127.4302,-109.4435C127.7516,-93.5865 128.0773,-77.5181 128.3481,-64.1594"/>
<polygon fill="none" stroke="#000000" points="123.9237,-109.7338 127.2202,-119.8027 130.9223,-109.8758 123.9237,-109.7338"/>
</g>
</g>
</svg>
