<?xml version="1.0" encoding="UTF-8" standalone="no"?>
<!DOCTYPE svg PUBLIC "-//W3C//DTD SVG 1.1//EN"
 "http://www.w3.org/Graphics/SVG/1.1/DTD/svg11.dtd">
<!-- Generated by graphviz version 2.40.1 (20161225.0304)
 -->
<!-- Title: G Pages: 1 -->
<svg width="310pt" height="410pt"
 viewBox="0.00 0.00 309.50 410.00" xmlns="http://www.w3.org/2000/svg" xmlns:xlink="http://www.w3.org/1999/xlink">
<g id="graph0" class="graph" transform="scale(1 1) rotate(0) translate(4 406)">
<title>G</title>
<polygon fill="#ffffff" stroke="transparent" points="-4,4 -4,-406 305.5,-406 305.5,4 -4,4"/>
<!-- A0 -->
<g id="node1" class="node">
<title>A0</title>
<polygon fill="none" stroke="#000000" points="35,-296 35,-328 112,-328 112,-296 35,-296"/>
<text text-anchor="start" x="44.7455" y="-309" font-family="Helvetica,sans-Serif" font-size="10.00" fill="#000000">+I:ICustomer</text>
<polygon fill="none" stroke="#000000" points="35,-264 35,-296 112,-296 112,-264 35,-264"/>
<text text-anchor="start" x="57.6685" y="-277" font-family="Helvetica,sans-Serif" font-size="10.00" fill="#000000">Greet()</text>
</g>
<!-- A1 -->
<g id="node2" class="node">
<title>A1</title>
<polygon fill="none" stroke="#000000" points="0,-98 0,-130 146,-130 146,-98 0,-98"/>
<text text-anchor="start" x="48.414" y="-111" font-family="Helvetica,sans-Serif" font-size="10.00" fill="#000000">+Customer</text>
<polygon fill="none" stroke="#000000" points="0,-54 0,-98 146,-98 146,-54 0,-54"/>
<text text-anchor="start" x="43.9655" y="-79" font-family="Helvetica,sans-Serif" font-size="10.00" fill="#000000">+name:string</text>
<text text-anchor="start" x="16.891" y="-67" font-family="Helvetica,sans-Serif" font-size="10.00" fill="#000000">&#45;creditCardNumber:string</text>
<polygon fill="none" stroke="#000000" points="0,-10 0,-54 146,-54 146,-10 0,-10"/>
<text text-anchor="start" x="9.5275" y="-35" font-family="Helvetica,sans-Serif" font-size="10.00" fill="#000000">+CreditCardNumber:string:w</text>
<text text-anchor="start" x="54.249" y="-23" font-family="Helvetica,sans-Serif" font-size="10.00" fill="#000000">+Greet()</text>
</g>
<!-- A0&#45;&gt;A1 -->
<g id="edge2" class="edge">
<title>A0&#45;&gt;A1</title>
<path fill="none" stroke="#000000" d="M73,-253.342C73,-218.6118 73,-169.1623 73,-130.369"/>
<polygon fill="none" stroke="#000000" points="69.5001,-253.6197 73,-263.6197 76.5001,-253.6197 69.5001,-253.6197"/>
</g>
<!-- A2 -->
<g id="node3" class="node">
<title>A2</title>
<polygon fill="none" stroke="#000000" points="163,-370 163,-402 302,-402 302,-370 163,-370"/>
<text text-anchor="start" x="205.415" y="-383" font-family="Helvetica,sans-Serif" font-size="10.00" fill="#000000">+A:HotDrink</text>
<polygon fill="none" stroke="#000000" points="163,-278 163,-370 302,-370 302,-278 163,-278"/>
<text text-anchor="start" x="204.016" y="-351" font-family="Helvetica,sans-Serif" font-size="10.00" fill="#000000">+instant:bool</text>
<text text-anchor="start" x="209.8595" y="-339" font-family="Helvetica,sans-Serif" font-size="10.00" fill="#000000">+milk:bool</text>
<text text-anchor="start" x="207.4945" y="-327" font-family="Helvetica,sans-Serif" font-size="10.00" fill="#000000">&#45;sugar:byte</text>
<text text-anchor="start" x="203.186" y="-315" font-family="Helvetica,sans-Serif" font-size="10.00" fill="#000000">+brand:string</text>
<text text-anchor="start" x="207.0795" y="-303" font-family="Helvetica,sans-Serif" font-size="10.00" fill="#000000">+size:string</text>
<text text-anchor="start" x="185.9675" y="-291" font-family="Helvetica,sans-Serif" font-size="10.00" fill="#000000">+customer:Customer</text>
<polygon fill="none" stroke="#000000" points="163,-234 163,-278 302,-278 302,-234 163,-234"/>
<text text-anchor="start" x="172.621" y="-259" font-family="Helvetica,sans-Serif" font-size="10.00" fill="#000000">+AddSugar(amount:byte):v</text>
<text text-anchor="start" x="207.635" y="-247" font-family="Helvetica,sans-Serif" font-size="10.00" fill="#000000">+Steam():a</text>
<polygon fill="none" stroke="#000000" points="163,-190 163,-234 302,-234 302,-190 163,-190"/>
<text text-anchor="start" x="229.171" y="-215" font-family="Helvetica,sans-Serif" font-size="10.00" fill="#000000">()</text>
<text text-anchor="start" x="202.7765" y="-203" font-family="Helvetica,sans-Serif" font-size="10.00" fill="#000000">(brand:string)</text>
</g>
<!-- A3 -->
<g id="node4" class="node">
<title>A3</title>
<polygon fill="none" stroke="#000000" points="164,-108 164,-140 300,-140 300,-108 164,-108"/>
<text text-anchor="start" x="199.906" y="-121" font-family="Helvetica,sans-Serif" font-size="10.00" fill="#000000">+CupOfCoffee</text>
<polygon fill="none" stroke="#000000" points="164,-76 164,-108 300,-108 300,-76 164,-76"/>
<text text-anchor="start" x="193.237" y="-89" font-family="Helvetica,sans-Serif" font-size="10.00" fill="#000000">+beanType:string</text>
<polygon fill="none" stroke="#000000" points="164,-44 164,-76 300,-76 300,-44 164,-44"/>
<text text-anchor="start" x="207.135" y="-57" font-family="Helvetica,sans-Serif" font-size="10.00" fill="#000000">+Steam():o</text>
<polygon fill="none" stroke="#000000" points="164,0 164,-44 300,-44 300,0 164,0"/>
<text text-anchor="start" x="225.7515" y="-25" font-family="Helvetica,sans-Serif" font-size="10.00" fill="#000000">+()</text>
<text text-anchor="start" x="173.937" y="-13" font-family="Helvetica,sans-Serif" font-size="10.00" fill="#000000">(brand:string):base(brand)</text>
</g>
<!-- A2&#45;&gt;A3 -->
<g id="edge1" class="edge">
<title>A2&#45;&gt;A3</title>
<path fill="none" stroke="#000000" stroke-dasharray="5,2" d="M232,-179.6621C232,-166.2104 232,-152.8219 232,-140.2599"/>
<polygon fill="#000000" stroke="#000000" points="232,-189.9482 227.5001,-179.9482 232,-184.9482 232.0001,-179.9482 232.0001,-179.9482 232.0001,-179.9482 232,-184.9482 236.5001,-179.9483 232,-189.9482 232,-189.9482"/>
</g>
</g>
</svg>
